<svg viewBox="185.90704647676162 516 1583.208395802099 456" xmlns:xlink="http://www.w3.org/1999/xlink" version="1.1" xmlns="http://www.w3.org/2000/svg" style="max-height: 500px" width="1583.208395802099" height="456"><rect fill="#000000" height="1500" width="2000"/><g transform="matrix(0.75,0,0,0.75,248.43144725770605,591.1665639111634)"><svg xmlns:xlink="http://www.w3.org/1999/xlink" xmlns="http://www.w3.org/2000/svg" width="2000" height="423" preserveAspectRatio="xMidYMid meet" data-background-color="#000000" viewBox="0 0 397 84"><g transform="matrix(1,0,0,1,0.41514362579380304,0.06542549792902719)" id="tight-bounds"><svg width="395.52" height="83.86914900414197" viewBox="0 0 395.52 83.86914900414197"><g><svg width="395.52" height="83.86914900414197" viewBox="0 0 566.2087491044371 120.06332409508715"><g transform="matrix(1,0,0,1,0,16.59341165134707)"><svg width="395.52" height="86.87650079239302" viewBox="0 0 395.52 86.87650079239302"><g id="textblocktransform"><svg id="textblock" width="395.52" height="86.87650079239302" viewBox="0 0 395.52 86.87650079239302"><g><svg width="395.52" height="86.87650079239302" viewBox="0 0 395.52 86.87650079239302"><g transform="matrix(1,0,0,1,0,0)"><svg data-palette-color="#e9e0e0" height="86.87650079239302" viewBox="2.1499999999999995 -34 157.73999999999998 34.65" width="395.52"><path id="text-0" data-fill-palette-color="primary" class="wordmark-text-0" fill="#e9e0e0" transform="matrix(1,0,0,1,0,0)" opacity="1" d="M5.6 0.5L5.6 0.5Q5 0.5 4.38 0.3 3.75 0.1 3.35-0.65 2.95-1.4 2.95-2.95L2.95-2.95Q2.95-4.2 3.18-6.13 3.4-8.05 3.75-10.25L3.75-10.25Q4.1-12.5 4.33-15 4.55-17.5 4.55-20.05L4.55-20.05Q4.55-21.05 4.5-22.2 4.45-23.35 4.3-24.45L4.3-24.45Q3.95-24.25 3.63-24.13 3.3-24 3-24L3-24Q2.15-24 2.15-25.65L2.15-25.65Q2.15-27.15 2.83-28.18 3.5-29.2 5.3-30.15L5.3-30.15Q7.05-31.1 9.43-31.73 11.8-32.35 14.25-32.35L14.25-32.35Q19.1-32.35 22.03-29.8 24.95-27.25 24.95-23L24.95-23Q24.95-20.4 23.9-18.2 22.85-16 21.13-14.38 19.4-12.75 17.38-11.88 15.35-11 13.4-11L13.4-11Q11.55-11 10.9-11.83 10.25-12.65 10.25-14.2L10.25-14.2Q10.25-14.95 10.43-15.58 10.6-16.2 11.2-16.2L11.2-16.2Q11.35-16.2 11.65-16.15 11.95-16.1 12.25-16L12.25-16Q12.55-15.95 13.1-15.85 13.65-15.75 14.35-15.75L14.35-15.75Q17.1-15.75 18.82-17.3 20.55-18.85 20.55-21.3L20.55-21.3Q20.55-23.85 18.65-25.3 16.75-26.75 13.75-26.75L13.75-26.75Q12.65-26.75 11.5-26.58 10.35-26.4 9.2-26.1L9.2-26.1Q9.05-22.8 8.5-18.6L8.5-18.6Q8.2-16.1 7.98-13.68 7.75-11.25 7.75-9.25L7.75-9.25Q7.75-7.5 8.08-6.18 8.4-4.85 9.4-3.9L9.4-3.9Q10.1-3.2 10.1-2.4L10.1-2.4Q10.1-1.3 8.85-0.4 7.6 0.5 5.6 0.5ZM29.65 0.55L29.65 0.55Q28.85 0.55 28.37 0.28 27.9 0 28.05-0.65L28.05-0.65Q28.6-2.8 28.97-5.03 29.35-7.25 29.35-9.3L29.35-9.3Q29.35-11.95 29.02-13.18 28.7-14.4 28.15-14.88 27.6-15.35 26.8-15.6L26.8-15.6Q26.45-15.75 26.17-16 25.9-16.25 25.9-16.7L25.9-16.7Q25.9-17.4 26.45-18.25 27-19.1 28-19.73 29-20.35 30.3-20.35L30.3-20.35Q32-20.35 32.67-19.18 33.35-18 33.35-16.1L33.35-16.1Q34.25-18.1 35.57-19.28 36.9-20.45 38.9-20.45L38.9-20.45Q40.25-20.45 41.15-19.85 42.05-19.25 42.05-17.9L42.05-17.9Q42.05-16.55 41.17-15.38 40.3-14.2 39.4-14.2L39.4-14.2Q39.25-14.2 39.05-14.25 38.85-14.3 38.7-14.5L38.7-14.5Q38.05-15.3 37.1-15.3L37.1-15.3Q35.65-15.3 34.55-13.4 33.45-11.5 33.35-8.15L33.35-8.15Q33.4-6.9 33.42-5.6 33.45-4.3 33.45-3.7L33.45-3.7Q33.45-1.85 32.42-0.65 31.4 0.55 29.65 0.55ZM51.75 0.65L51.75 0.65Q48.3 0.65 46.22-1.23 44.15-3.1 44.15-6.75L44.15-6.75Q44.15-8.45 44.62-10.05 45.09-11.65 45.9-13.05L45.9-13.05Q45.09-12.55 44.7-12.55L44.7-12.55Q44.09-12.55 43.87-13.23 43.65-13.9 43.65-14.55L43.65-14.55Q43.65-15.7 44.12-16.38 44.59-17.05 45.05-17.4L45.05-17.4Q46.09-18.3 48.34-19.38 50.59-20.45 53.75-20.45L53.75-20.45Q58.05-20.45 60.42-18.05 62.8-15.65 62.8-11.35L62.8-11.35Q62.8-8 61.4-5.28 60-2.55 57.52-0.95 55.05 0.65 51.75 0.65ZM53.3-4.45L53.3-4.45Q55.8-4.45 57.52-6.03 59.25-7.6 59.25-10.2L59.25-10.2Q59.25-12.9 57.5-14.05 55.75-15.2 53.45-15.2L53.45-15.2Q52.4-15.2 51.55-15 50.7-14.8 49.95-14.5L49.95-14.5Q49.25-13.5 48.7-12.25 48.15-11 48.15-9.5L48.15-9.5Q48.15-7 49.65-5.73 51.15-4.45 53.3-4.45ZM76.74 0.65L76.74 0.65Q74.89 0.65 73.57 0 72.24-0.65 71.24-1.65L71.24-1.65Q70.74-0.8 70.07-0.13 69.39 0.55 68.54 0.55L68.54 0.55Q67.99 0.55 67.49 0.23 66.99-0.1 67.09-0.65L67.09-0.65Q67.84-4.65 68.37-8.75 68.89-12.85 68.89-17.1L68.89-17.1Q68.89-20.65 68.64-23.75 68.39-26.85 67.09-29.45L67.09-29.45Q66.84-29.95 66.67-30.4 66.49-30.85 66.49-31.25L66.49-31.25Q66.49-32.2 67.59-33.1 68.69-34 69.94-34L69.94-34Q71.74-34 72.39-31.8 73.04-29.6 73.04-25.3L73.04-25.3Q73.04-21.65 72.72-18.63 72.39-15.6 71.99-13.45L71.99-13.45Q73.39-16.4 75.82-18.43 78.24-20.45 81.29-20.45L81.29-20.45Q84.34-20.45 86.07-18.43 87.79-16.4 87.79-12.95L87.79-12.95Q87.79-10.4 86.99-7.98 86.19-5.55 84.74-3.6 83.29-1.65 81.27-0.5 79.24 0.65 76.74 0.65ZM77.89-4.75L77.89-4.75Q80.74-4.75 82.29-6.55 83.84-8.35 83.84-10.7L83.84-10.7Q83.84-12.75 82.72-13.88 81.59-15 79.74-15L79.74-15Q77.89-15 76.44-13.88 74.99-12.75 73.99-10.93 72.99-9.1 72.44-7L72.44-7Q73.59-5.9 75.02-5.33 76.44-4.75 77.89-4.75ZM95.34 0.5L95.34 0.5Q93.89 0.5 93.19-0.3 92.49-1.1 92.49-3.1L92.49-3.1Q92.49-4.05 92.64-5.55 92.79-7.05 92.99-8.8L92.99-8.8Q93.29-10.95 93.52-13.3 93.74-15.65 93.74-17.8L93.74-17.8Q93.74-20.85 93.47-24.13 93.19-27.4 91.94-29.85L91.94-29.85Q91.49-30.85 91.49-31.3L91.49-31.3Q91.49-31.95 92.07-32.55 92.64-33.15 93.49-33.58 94.34-34 95.14-34L95.14-34Q96.44-34 97.09-32.83 97.74-31.65 97.94-29.63 98.14-27.6 98.14-25L98.14-25Q98.14-21.05 97.82-18.15 97.49-15.25 97.19-13.05L97.19-13.05Q96.99-11.6 96.82-10.3 96.64-9 96.64-7.95L96.64-7.95Q96.64-6.2 97.22-5.43 97.79-4.65 99.09-3.9L99.09-3.9Q99.44-3.7 99.62-3.53 99.79-3.35 99.79-3L99.79-3Q99.79-2.6 99.39-1.75 98.99-0.9 98.02-0.2 97.04 0.5 95.34 0.5ZM110.89 0.65L110.89 0.65Q107.09 0.65 104.96-1.53 102.84-3.7 102.84-7.6L102.84-7.6Q102.84-11.15 104.39-14.05 105.94-16.95 108.56-18.68 111.19-20.4 114.34-20.4L114.34-20.4Q117.34-20.4 119.14-18.93 120.94-17.45 120.94-15L120.94-15Q120.94-13.05 119.74-11.4 118.54-9.75 116.54-8.78 114.54-7.8 112.09-7.8L112.09-7.8Q109.09-7.8 107.19-9.15L107.19-9.15Q107.24-6.85 108.76-5.45 110.29-4.05 112.69-4.05L112.69-4.05Q114.14-4.05 115.66-4.58 117.19-5.1 118.29-6L118.29-6Q118.99-6.6 119.59-6.6L119.59-6.6Q120.09-6.6 120.41-6.28 120.74-5.95 120.74-5.45L120.74-5.45Q120.74-4.35 118.84-2.55L118.84-2.55Q115.49 0.65 110.89 0.65ZM111.64-11.1L111.64-11.1Q113.44-11.1 114.64-11.85 115.84-12.6 115.84-13.75L115.84-13.75Q115.84-14.7 115.04-15.23 114.24-15.75 112.84-15.75L112.84-15.75Q110.99-15.75 109.61-14.78 108.24-13.8 107.64-12.05L107.64-12.05Q108.34-11.6 109.44-11.35 110.54-11.1 111.64-11.1ZM127.59 0.55L127.59 0.55Q125.79 0.55 125.99-0.65L125.99-0.65Q126.54-2.8 126.91-5.03 127.29-7.25 127.29-9.3L127.29-9.3Q127.29-11.95 126.96-13.18 126.64-14.4 126.09-14.88 125.54-15.35 124.74-15.6L124.74-15.6Q124.39-15.75 124.11-16 123.84-16.25 123.84-16.7L123.84-16.7Q123.84-17.4 124.39-18.25 124.94-19.1 125.96-19.73 126.99-20.35 128.29-20.35L128.29-20.35Q129.99-20.35 130.64-19.18 131.29-18 131.29-16.1L131.29-16.1Q131.29-14.85 131.04-13.3 130.79-11.75 130.54-10.5L130.54-10.5 130.64-10.45Q131.44-13.1 132.61-15.35 133.79-17.6 135.46-19 137.14-20.4 139.34-20.4L139.34-20.4Q141.59-20.4 142.89-18.88 144.19-17.35 144.19-14.4L144.19-14.4 144.19-13.3Q145.64-16.35 147.71-18.4 149.79-20.45 152.74-20.45L152.74-20.45Q155.14-20.45 156.49-18.85 157.84-17.25 157.84-14.85L157.84-14.85Q157.84-13.9 157.64-13.03 157.44-12.15 157.19-11.3L157.19-11.3Q156.99-10.5 156.79-9.65 156.59-8.8 156.59-7.95L156.59-7.95Q156.59-4.95 159.14-4.05L159.14-4.05Q159.49-3.9 159.69-3.73 159.89-3.55 159.89-3.1L159.89-3.1Q159.89-2.65 159.61-1.8 159.34-0.95 158.54-0.23 157.74 0.5 156.24 0.5L156.24 0.5Q154.29 0.5 153.24-0.93 152.19-2.35 152.19-4.55L152.19-4.55Q152.19-5.65 152.39-6.85 152.59-8.05 152.89-9.15L152.89-9.15Q153.14-10.15 153.31-11.05 153.49-11.95 153.49-12.6L153.49-12.6Q153.49-13.8 152.91-14.35 152.34-14.9 151.39-14.9L151.39-14.9Q149.79-14.9 148.51-13.9 147.24-12.9 146.26-11.3 145.29-9.7 144.59-7.8L144.59-7.8Q144.64-7.35 144.66-6.63 144.69-5.9 144.69-5.35L144.69-5.35Q144.69-4.4 144.56-3.35 144.44-2.3 144.09-1.6L144.09-1.6Q143.69-0.65 142.91-0.05 142.14 0.55 140.84 0.55L140.84 0.55Q140.29 0.55 139.79 0.33 139.29 0.1 139.29-0.4L139.29-0.4Q139.29-0.6 139.59-2.18 139.89-3.75 140.19-6.05 140.49-8.35 140.49-10.55L140.49-10.55Q140.49-12.95 139.99-13.88 139.49-14.8 138.49-14.8L138.49-14.8Q137.24-14.8 136.11-13.75 134.99-12.7 134.06-11.05 133.14-9.4 132.46-7.6 131.79-5.8 131.39-4.25L131.39-4.25 131.39-3.7Q131.39-1.85 130.36-0.65 129.34 0.55 127.59 0.55Z"/></svg></g></svg></g></svg></g></svg></g><g transform="matrix(1,0,0,1,416.02945680106495,0)"><svg width="150.17929230337214" height="120.06332409508715" viewBox="0 0 150.17929230337214 120.06332409508715"><g><svg id="icon-0" data-fill-palette-color="accent" class="icon-icon-0" width="150.17929230337214" height="120.06332409508715" y="0" x="0" viewBox="1.4688768765155755 11.19 97.10224624696883 77.63" data-name="Layer 1" xmlns="http://www.w3.org/2000/svg"><path data-fill-palette-color="accent" fill="#ddddec" d="M34.48 88.82H65.48A9.27 9.27 0 0 0 74.57 79.43V20.58A9.27 9.27 0 0 0 65.48 11.19H34.48A9.27 9.27 0 0 0 25.39 20.58V79.43A9.27 9.27 0 0 0 34.48 88.82M52.61 84.72H47.39A2.27 2.27 0 1 1 47.39 80.17H52.6A2.27 2.27 0 1 1 52.6 84.72ZM32.36 24.58A0.59 0.59 0 0 1 33 24H67A0.59 0.59 0 0 1 67.59 24.59V75.46A0.59 0.59 0 0 1 67 76.05H33A0.59 0.59 0 0 1 32.41 75.46ZM84.75 42A15.11 15.11 0 0 1 84.75 58 2.8 2.8 0 0 1 80.41 58.43L80.25 58.27A2.76 2.76 0 0 1 79.91 54.85 9.32 9.32 0 0 0 79.91 45.15 2.76 2.76 0 0 1 80.25 41.73L80.41 41.57A2.8 2.8 0 0 1 84.75 42M92.9 33.59A26.65 26.65 0 0 1 92.9 66.46 2.83 2.83 0 0 1 88.69 66.69L88.6 66.6A2.81 2.81 0 0 1 88.37 62.87 20.78 20.78 0 0 0 88.37 37.15 2.81 2.81 0 0 1 88.57 33.46L88.65 33.38A2.83 2.83 0 0 1 92.9 33.57ZM20.1 45.19A9.32 9.32 0 0 0 20.1 54.89 2.76 2.76 0 0 1 19.76 58.31L19.6 58.47A2.8 2.8 0 0 1 15.25 58 15.11 15.11 0 0 1 15.25 42 2.8 2.8 0 0 1 19.59 41.57L19.75 41.73A2.76 2.76 0 0 1 20.09 45.17ZM11.43 33.42A2.81 2.81 0 0 1 11.66 37.15 20.78 20.78 0 0 0 11.66 62.87 2.81 2.81 0 0 1 11.46 66.56L11.38 66.64A2.83 2.83 0 0 1 7.14 66.44 26.65 26.65 0 0 1 7.14 33.57 2.83 2.83 0 0 1 11.35 33.34ZM38.16 44.24A4.51 4.51 0 1 1 42.67 48.75 4.51 4.51 0 0 1 38.16 44.24M52.83 44.24A4.51 4.51 0 1 1 57.34 48.75 4.51 4.51 0 0 1 52.83 44.24M49.93 58.48C42.93 58.48 40.67 60.56 39.39 60.24S42.26 52.57 49.93 52.57 61.75 59.92 60.47 60.24 57 58.48 49.93 58.48"/></svg></g></svg></g></svg></g><defs/></svg><rect visibility="hidden" stroke="none" fill="none" height="83.86914900414197" width="395.52"/></g></svg></g></svg>